<?xml version="1.0" encoding="iso-8859-1"?>
<!-- Generator: Adobe Illustrator 16.0.0, SVG Export Plug-In . SVG Version: 6.00 Build 0)  -->
<!DOCTYPE svg PUBLIC "-//W3C//DTD SVG 1.1//EN" "http://www.w3.org/Graphics/SVG/1.1/DTD/svg11.dtd">
<svg version="1.1" id="Capa_1" xmlns="http://www.w3.org/2000/svg" xmlns:xlink="http://www.w3.org/1999/xlink" x="0px" y="0px"
	 width="100px" height="70px" viewBox="0 0 100 70" style="enable-background:new 0 0 100 70;" xml:space="preserve">
<path d="M90,0H42.231c-2.2,0-5.354,1.186-7.011,2.634L1.242,32.366c-1.656,1.448-1.656,3.819,0,5.268l33.979,29.732
	C36.877,68.814,40.031,70,42.231,70H90c5.5,0,10-4.5,10-10V10C100,4.5,95.5,0,90,0z M75.956,54.999L63.175,42.218L50.393,54.999
	l-7.218-7.218L55.956,35L43.175,22.221l7.218-7.222l12.78,12.781l12.781-12.779l7.219,7.218l-12.78,12.78L83.175,47.78
	L75.956,54.999z"/>
<g>
</g>
<g>
</g>
<g>
</g>
<g>
</g>
<g>
</g>
<g>
</g>
<g>
</g>
<g>
</g>
<g>
</g>
<g>
</g>
<g>
</g>
<g>
</g>
<g>
</g>
<g>
</g>
<g>
</g>
</svg>
