<?xml version="1.0"?>
<svg xmlns:rdf="http://www.w3.org/1999/02/22-rdf-syntax-ns#" xmlns="http://www.w3.org/2000/svg" xmlns:cc="http://creativecommons.org/ns#" xmlns:xlink="http://www.w3.org/1999/xlink" xmlns:dc="http://purl.org/dc/elements/1.1/" xmlns:svg="http://www.w3.org/2000/svg" id="svg11300" viewBox="0 0 48 48">
  <defs id="defs3">
    <linearGradient id="linearGradient1486" x1="13.479" gradientUnits="userSpaceOnUse" y1="10.612" gradientTransform="translate(.46541 -.27759)" x2="15.419" y2="19.115">
      <stop id="stop2833" stop-color="#3465a4" offset="0"/>
      <stop id="stop2855" stop-color="#5b86be" offset=".33333"/>
      <stop id="stop2835" stop-color="#83a8d8" stop-opacity="0" offset="1"/>
    </linearGradient>
    <linearGradient id="linearGradient1488" x1="37.128" gradientUnits="userSpaceOnUse" y1="29.73" gradientTransform="matrix(-1 0 0 -1 47.528 45.847)" x2="37.065" y2="26.194">
      <stop id="stop2849" stop-color="#3465a4" offset="0"/>
      <stop id="stop2851" stop-color="#3465a4" stop-opacity="0" offset="1"/>
    </linearGradient>
    <linearGradient id="linearGradient1491" x1="5.9649" gradientUnits="userSpaceOnUse" x2="52.854" y1="26.048" y2="26.048">
      <stop id="stop2799" stop-color="#fff" offset="0"/>
      <stop id="stop2801" stop-color="#fff" stop-opacity="0" offset="1"/>
    </linearGradient>
    <linearGradient id="linearGradient1501" y2="50.94" gradientUnits="userSpaceOnUse" y1="45.264" x2="45.38" x1="46.835">
      <stop id="stop2873" stop-color="#3465a4" offset="0"/>
      <stop id="stop2875" stop-color="#3465a4" offset="1"/>
    </linearGradient>
    <radialGradient id="radialGradient1503" gradientUnits="userSpaceOnUse" cy="36.421" cx="24.837" gradientTransform="matrix(1 0 0 .53672 -9.6809e-14 16.873)" r="15.645">
      <stop id="stop8664" offset="0"/>
      <stop id="stop8666" stop-opacity="0" offset="1"/>
    </radialGradient>
    <linearGradient id="linearGradient2386" y2="20.609" gradientUnits="userSpaceOnUse" y1="36.061" x2="15.985" x1="62.514">
      <stop id="stop2382" stop-color="#b9cfe7" offset="0"/>
      <stop id="stop2384" stop-color="#729fcf" offset="1"/>
    </linearGradient>
    <linearGradient id="linearGradient2408" y2="26.649" gradientUnits="userSpaceOnUse" y1="23.668" x2="53.589" x1="18.936">
      <stop id="stop2404" stop-color="#729fcf" offset="0"/>
      <stop id="stop2406" stop-color="#528ac5" offset="1"/>
    </linearGradient>
    <linearGradient id="linearGradient2688" y2="24.842" gradientUnits="userSpaceOnUse" y1="31.456" x2="37.124" x1="36.714">
      <stop id="stop2684" stop-color="#3977c3" offset="0"/>
      <stop id="stop2686" stop-color="#89aedc" stop-opacity="0" offset="1"/>
    </linearGradient>
    <linearGradient id="linearGradient2696" y2="24.842" gradientUnits="userSpaceOnUse" y1="30.749" x2="37.124" x1="32.648">
      <stop id="stop2692" stop-color="#c4d7eb" offset="0"/>
      <stop id="stop2694" stop-color="#c4d7eb" stop-opacity="0" offset="1"/>
    </linearGradient>
  </defs>
  <g id="layer1">
    <path id="path8660" opacity=".38333" style="color:#000000" d="m40.482 36.421a15.645 8.3969 0 1 1 -31.29 0 15.645 8.3969 0 1 1 31.29 0z" fill-rule="evenodd" transform="matrix(-1.4897 0 0 -1.0013 61.209 75.282)" fill="url(#radialGradient1503)"/>
    <path id="path2865" style="color:#000000" d="m20.153 10.41s-8.938-0.6251-6.188 9.875h-7.6871s0.5-11.875 13.875-9.875z" stroke="url(#linearGradient1488)" display="block" fill="url(#linearGradient1486)"/>
    <g id="g1878" stroke="#3465a4" fill="url(#linearGradient2386)" transform="matrix(-.57905 -.48923 -.48923 .57905 56.916 13.371)">
      <path id="path1880" style="color:#000000" d="m44.307 50.23c18.514-14.411 5.358-36.818-21.845-37.732l-0.348-9.3465-14.49 17.346 15.09 12.721s-0.252-9.881-0.252-9.881c18.83 0.999 32.982 14.072 21.845 26.892z" display="block" stroke="url(#linearGradient1501)" stroke-width="1.3192" fill="url(#linearGradient2386)"/>
    </g>
    <path id="path2839" style="color:#000000" d="m28.375 33.438s8.937 0.624 6.187-9.876h7.776c0 1.503-0.588 11.876-13.963 9.876z" stroke="url(#linearGradient2688)" display="block" fill="url(#linearGradient2696)"/>
    <g id="g2779" style="color:#000000" transform="matrix(.57905 .48923 .48923 -.57905 -7.921 30.536)" stroke="url(#linearGradient1501)" stroke-width="1.3192" display="block" fill="url(#linearGradient2408)">
      <path id="path2781" style="color:#000000" d="m44.307 50.23c18.514-14.411 5.358-36.818-21.845-37.732l-0.063-9.429-14.605 17.355 14.668 12.582v-9.668c18.83 0.999 32.982 14.072 21.845 26.892z" display="block" stroke="url(#linearGradient1501)" stroke-width="1.3192" fill="url(#linearGradient2408)"/>
    </g>
    <path id="path2791" opacity=".27222" d="m7.0625 38.188l0.0625-14.876 12.937-0.374-4.388 5.178 3.867 2.374c-3 2.25-4.55 2.422-5.55 4.984l-2.817-2.11-4.1115 4.824z" style="color:#000000" fill="#fff"/>
    <g id="g2793" opacity=".5" stroke="#fff" fill="none" transform="matrix(.50854 .42965 .42965 -.50854 -3.9732 30.541)">
      <path id="path2795" opacity="1" style="color:#000000" d="m51.09 45.944c9.12-15.22-4.458-33.743-31.605-33.995l0.028-8.2457-12.979 15.594 12.834 10.972s0.055-9.007 0.055-9.007c17.528-0.224 35.195 10.103 31.667 24.682z" stroke="url(#linearGradient1491)" stroke-width="1.5021" display="block" fill="none"/>
    </g>
    <g id="g2805" opacity=".5" stroke="#fff" fill="none" transform="matrix(-.50854 -.42965 -.42965 .50854 53.049 13.365)">
      <path id="path2807" opacity="1" style="color:#000000" d="m51.39 46.506c9.12-15.22-4.339-34.074-31.762-34.436l-0.285-8.0193-13.002 15.328 13.468 11.386-0.182-9.454c18.245 0.382 34.784 10.926 31.763 25.195z" stroke="url(#linearGradient1491)" stroke-width="1.5021" display="block" fill="none"/>
    </g>
    <path id="path2811" opacity=".27222" d="m6.8125 16.5c3.5935-10.441 16.444-6.145 20.188-4.5 4.175 0.211 5.675-2.835 9-3-14.05-9.79-28.812-6.5-29.188 7.5z" style="color:#000000" fill="#fff"/>
  </g>
  <metadata>
    <rdf:RDF>
      <cc:Work>
        <dc:format>image/svg+xml</dc:format>
        <dc:type rdf:resource="http://purl.org/dc/dcmitype/StillImage"/>
        <cc:license rdf:resource="http://creativecommons.org/licenses/publicdomain/"/>
        <dc:publisher>
          <cc:Agent rdf:about="http://openclipart.org/">
            <dc:title>Openclipart</dc:title>
          </cc:Agent>
        </dc:publisher>
        <dc:title>tango view refresh</dc:title>
        <dc:date>2010-03-24T09:32:49</dc:date>
        <dc:description>"Refresh" icon from &lt;A href="http://tango.freedesktop.org/Tango_Desktop_Project"&gt; Tango Project &lt;/A&gt; &#xD;\n&lt;BR&gt;&lt;BR&gt;&#xD;\nSince version 0.8.90 Tango Project icons are Public Domain: &lt;A href="http://tango.freedesktop.org/Frequently_Asked_Questions#Terms_of_Use.3F"&gt; Tango Project FAQ &lt;/A&gt;</dc:description>
        <dc:source>http://openclipart.org/detail/33685/tango-view-refresh-by-warszawianka</dc:source>
        <dc:creator>
          <cc:Agent>
            <dc:title>warszawianka</dc:title>
          </cc:Agent>
        </dc:creator>
        <dc:subject>
          <rdf:Bag>
            <rdf:li>arrow</rdf:li>
            <rdf:li>blue</rdf:li>
            <rdf:li>clip art</rdf:li>
            <rdf:li>clipart</rdf:li>
            <rdf:li>externalsource</rdf:li>
            <rdf:li>icon</rdf:li>
            <rdf:li>refresh</rdf:li>
            <rdf:li>tango</rdf:li>
            <rdf:li>view</rdf:li>
          </rdf:Bag>
        </dc:subject>
      </cc:Work>
      <cc:License rdf:about="http://creativecommons.org/licenses/publicdomain/">
        <cc:permits rdf:resource="http://creativecommons.org/ns#Reproduction"/>
        <cc:permits rdf:resource="http://creativecommons.org/ns#Distribution"/>
        <cc:permits rdf:resource="http://creativecommons.org/ns#DerivativeWorks"/>
      </cc:License>
    </rdf:RDF>
  </metadata>
</svg>
