<?xml version="1.0" encoding="utf-8"?>
<!-- Generator: Adobe Illustrator 16.0.4, SVG Export Plug-In . SVG Version: 6.00 Build 0)  -->
<!DOCTYPE svg PUBLIC "-//W3C//DTD SVG 1.1//EN" "http://www.w3.org/Graphics/SVG/1.1/DTD/svg11.dtd">
<svg version="1.1" id="Capa_1" xmlns="http://www.w3.org/2000/svg" xmlns:xlink="http://www.w3.org/1999/xlink" x="0px" y="0px"
	 width="612px" height="792px" viewBox="0 0 612 792" enable-background="new 0 0 612 792" xml:space="preserve">
<path d="M559.368,531.252c2.854,2.856,4.284,6.222,4.284,10.098s-1.43,7.242-4.284,10.1l-94.86,94.858
	c-2.854,2.856-6.12,4.284-9.792,4.284c-3.264,0-6.73-1.428-10.403-4.284L309.06,511.056L173.808,646.308
	c-2.856,2.856-6.12,4.284-9.792,4.284c-3.264,0-6.732-1.428-10.404-4.284l-94.86-94.858c-2.448-2.448-3.672-5.916-3.672-10.404
	c0-4.08,1.224-7.344,3.672-9.792L194.004,396L59.364,260.748c-2.856-2.448-4.284-5.712-4.284-9.792
	c0-4.488,1.428-7.956,4.284-10.404l94.248-94.86c2.856-2.856,6.324-4.284,10.404-4.284s7.344,1.428,9.792,4.284L309.06,280.944
	l135.253-135.252c2.855-2.856,6.223-4.284,10.099-4.284s7.242,1.428,10.098,4.284l94.86,94.86c2.854,2.856,4.284,6.222,4.284,10.098
	s-1.43,7.242-4.284,10.098L424.116,396L559.368,531.252L559.368,531.252z"/>
</svg>
